# xmcd
#
# Track frame offsets:
#	150
#	11180
#	24575
#	34567
#	48780
#	61067
#	73197
#	85300
#	97990
#	109642
#	121985
#	132792
#	145657
#	158740
#	170915
#	182660
#	192350
#	203637
#	216247
#	228557
#
# Disc length: 3194
#
# Revision: 1
# Processed by: cddbd v1.5.1PL0 Copyright (c) Steve Scherf et al.
# Submitted via: audiograbber 1.81.03
# Normalized: r0:TRMNUM
#
DISCID=120c7814
DTITLE=Guy Mitchell - Singing The Blues
DYEAR=1900
DGENRE=Blues
TTITLE0=Singing The Blues
TTITLE1=She Wears Red Feathers
TTITLE2=Rock A Billy
TTITLE3=Sparrow In The Tree Top
TTITLE4=My Truly, Truly Fair
TTITLE5=My Heart Cries For You
TTITLE6=Feetup
TTITLE7=Pittsburgh Pennsylvania
TTITLE8=Heartaches By The Number
TTITLE9=The Roving Kind
TTITLE10=Sippin' Soda
TTITLE11=Music, Music, Music
TTITLE12=My Shoes Keep Walking Back To You
TTITLE13=Chicka Boom
TTITLE14=Pretty Little Black Eyed Susie
TTITLE15=Knee Deep In The Blues
TTITLE16=Call Rosie On The Phone
TTITLE17=Side By Side
TTITLE18=The Cuff Of My Shirt
TTITLE19=Cloud  Lucky Seven
EXTD=
EXTT0=
EXTT1=
EXTT2=
EXTT3=
EXTT4=
EXTT5=
EXTT6=
EXTT7=
EXTT8=
EXTT9=
EXTT10=
EXTT11=
EXTT12=
EXTT13=
EXTT14=
EXTT15=
EXTT16=
EXTT17=
EXTT18=
EXTT19=
PLAYORDER=
